<svg id="Capa_1" enable-background="new 0 0 512 512" height="512" viewBox="0 0 512 512" width="512" xmlns="http://www.w3.org/2000/svg"><g><path d="m512 256c0 65.1-24.3 124.52-64.32 169.69-46.9 52.94-115.4-35.755-191.68-35.755-29.58 0-58-5.02-84.44-14.25-41.73-14.58-78.53 82.415-107.24 50.005-40.02-45.17-64.32-104.59-64.32-169.69 0-141.38 114.62-256 256-256s256 114.62 256 256z" fill="#ffc250"/><path d="m144.93 46.69h58.71v129.03h-58.71z" fill="#d80a61"/><path d="m308.36 46.69h58.71v129.03h-58.71z" fill="#da387d"/><path d="m308.36 46.69h16.959v129.03h-16.959z" fill="#d80a61"/><path d="m308.36 46.69h58.71v31.93h-58.71z" fill="#d80a61"/><path d="m357.802 9.447h-203.604c-15.795 0-28.599 12.804-28.599 28.599 0 15.795 12.804 28.599 28.599 28.599h203.603c15.794 0 28.598-12.804 28.598-28.599.001-15.795-12.803-28.599-28.597-28.599z" fill="#da387d"/><path d="m272.755 92.914h-33.51c-8.378 0-15.169 6.791-15.169 15.169v57.658h63.848v-57.658c0-8.377-6.791-15.169-15.169-15.169z" fill="#f1f4f6"/><path d="m265.046 92.913c-8.38 0-15.17 6.8-15.17 15.17v57.66h-25.8v-57.66c0-8.37 6.79-15.17 15.16-15.17z" fill="#d0e2e7"/><path d="m203.81 58.265c5.17 5.18 12.33 8.38 20.22 8.38h-69.83c-7.9 0-15.05-3.2-20.22-8.38-5.18-5.17-8.38-12.32-8.38-20.22 0-15.79 12.8-28.6 28.6-28.6h69.83c-15.79 0-28.6 12.81-28.6 28.6 0 7.9 3.2 15.05 8.38 20.22z" fill="#d80a61"/><path d="m447.68 239.66v186.03c-8.22 9.28-17.11 17.96-26.59 25.96-13.5 11.42-28.21 21.45-43.89 29.9-36.08 19.43-77.36 30.45-121.2 30.45-76.28 0-144.78-33.37-191.68-86.31v-186.03c0-59.92 48.58-108.5 108.5-108.5h166.36c59.92 0 108.5 48.58 108.5 108.5z" fill="#da387d"/><path d="m163.09 239.66v215.97c0 14.94 3.02 29.17 8.47 42.12-41.73-14.58-78.53-39.65-107.24-72.06v-186.03c0-59.92 48.58-108.5 108.5-108.5h98.76c-59.92 0-108.49 48.58-108.49 108.5z" fill="#d80a61"/><path d="m447.68 258.52v51.88h-354.29c-14.33 0-25.94-11.62-25.94-25.94 0-7.16 2.9-13.65 7.6-18.34 4.69-4.7 11.17-7.6 18.34-7.6z" fill="#d80a61"/><path d="m437.567 294.434h-363.134c-14.325 0-25.938-11.613-25.938-25.938 0-14.325 11.613-25.938 25.938-25.938h363.135c14.325 0 25.938 11.613 25.938 25.938 0 14.325-11.613 25.938-25.939 25.938z" fill="#da387d"/><path d="m163.224 294.436h-88.79c-14.32 0-25.94-11.62-25.94-25.94 0-7.16 2.91-13.65 7.6-18.34 4.69-4.7 11.18-7.6 18.34-7.6h88.79c-7.16 0-13.64 2.9-18.34 7.6-4.7 4.69-7.6 11.18-7.6 18.34 0 14.32 11.62 25.94 25.94 25.94z" fill="#d80a61"/><path d="m421.09 363.94v87.71c-13.5 11.42-28.21 21.45-43.89 29.9v-117.61c0-12.13 9.82-21.95 21.94-21.95 6.06 0 11.55 2.45 15.52 6.43 3.97 3.97 6.43 9.46 6.43 15.52z" fill="#df75a5"/></g></svg>